<?xml version="1.0" encoding="utf-8"?>
<!-- Generator: Adobe Illustrator 15.1.0, SVG Export Plug-In . SVG Version: 6.00 Build 0)  -->
<!DOCTYPE svg PUBLIC "-//W3C//DTD SVG 1.1//EN" "http://www.w3.org/Graphics/SVG/1.1/DTD/svg11.dtd">
<svg version="1.1" id="Layer_1" xmlns="http://www.w3.org/2000/svg" xmlns:xlink="http://www.w3.org/1999/xlink" x="0px" y="0px"
	 width="611px" height="107px" viewBox="0 0 611 107" enable-background="new 0 0 611 107" xml:space="preserve">
<g>
	<circle fill="#4177A0" cx="544.437" cy="25.631" r="6.175"/>
	<g>
		<path fill="#4177A0" d="M30.192,62.617v12.945c0,3.586,1.05,4.109,3.849,4.109h1.924c1.399,0,1.575,0.264,1.575,1.312v3.848
			c0,1.139-0.263,1.576-1.575,1.576H14.798c-1.225,0-1.662-0.352-1.662-1.576v-3.848c0-0.961,0.262-1.312,1.662-1.312h1.924
			c2.711,0,3.761-0.787,3.761-4.109V33.754c0-2.536-0.7-3.411-2.711-3.674h-3.148c-1.137,0-1.487-0.437-1.487-1.574v-3.673
			c0-1.312,0.35-1.574,1.749-1.574h20.642c18.367,0,27.988,4.723,27.988,19.416c0,13.47-9.271,19.942-23.09,19.942H30.192z
			 M37.189,55.971c10.933,0,16.093-4.549,16.093-13.296c0-9.358-5.511-12.77-16.706-12.77h-6.385v26.065H37.189z"/>
		<path fill="#4177A0" d="M86.579,38.826c12.07,0,18.63,3.586,18.63,17.494V76c0,2.623,0.875,3.848,2.624,3.848
			c1.574,0,2.012-0.35,2.974-0.438c0.787-0.088,1.137,0,1.137,0.875v3.936c0,0.787-0.262,1.486-1.225,1.836
			c-1.399,0.525-2.711,0.787-6.123,0.787s-7.259-1.137-8.396-5.859c-2.974,3.498-8.047,5.947-15.219,5.947
			c-9.621,0-14.431-4.197-14.431-12.594c0-12.07,9.971-15.395,25.627-15.395h3.761v-2.799c0-7.697-2.624-10.233-9.446-10.233
			c-2.711,0-5.423,0.438-7.61,1.399c0.525,0.787,0.875,1.837,0.875,3.062c0,3.498-2.712,5.86-5.773,5.86
			c-2.886,0-5.16-2.1-5.16-5.423C68.824,42.062,75.208,38.826,86.579,38.826z M83.081,80.197c7.434,0,12.857-4.723,12.857-12.945
			V65.24h-3.761c-10.496,0-16.443,2.188-16.443,8.834C75.733,77.836,77.658,80.197,83.081,80.197z"/>
		<path fill="#4177A0" d="M117.357,47.224c-1.137,0-1.487-0.525-1.487-1.575v-3.586c0-1.225,0.35-1.574,1.662-1.661l12.682-0.7
			c1.575,0,2.012,0.7,2.012,2.449v9.184c1.225-4.286,5.161-12.508,14.694-12.508c6.385,0,9.008,3.499,9.008,8.484
			c0,3.499-2.711,5.772-5.685,5.772c-2.886,0-5.248-2.099-5.248-5.423c0-0.699,0.087-1.398,0.35-2.012
			c-8.396,0.263-13.12,12.596-13.12,21.867v8.396c0,3.236,0.962,3.76,3.849,3.76h3.848c1.4,0,1.662,0.352,1.662,1.312v3.936
			c0,1.137-0.35,1.488-1.662,1.488h-22.915c-1.225,0-1.575-0.352-1.575-1.576v-3.848c0-1.049,0.263-1.312,1.575-1.312h2.012
			c2.886,0,3.936-0.699,3.936-3.76v-25.54C122.955,47.748,122.255,47.224,117.357,47.224z"/>
		<path fill="#4177A0" d="M160.871,29.796c0-1.221,5.085-2.252,6.922-2.252c2.274,0,2.361,0.175,2.361,1.399v11.545h10.496
			c1.487,0,1.924,0.176,1.924,1.312v4.198c0,1.049-0.438,1.574-1.837,1.574h-10.583v23.353c0,7.697,2.361,8.834,6.822,8.834
			c2.537,0,4.286-0.35,5.598-0.875c0.962-0.438,1.399-0.174,1.399,1.051v3.848c0,1.049-0.35,1.574-1.399,2.012
			c-2.274,0.875-5.51,1.137-7.959,1.137c-7.434,0-13.732-2.449-13.732-13.732L160.871,29.796z"/>
		<path fill="#4177A0" d="M189.377,47.224c-1.137,0-1.487-0.525-1.487-1.575v-3.586c0-1.225,0.35-1.574,1.662-1.661l12.245-0.7
			c1.574,0,1.924,0.7,1.924,2.449v5.947c2.449-6.385,8.484-9.271,15.656-9.271c8.222,0,14.257,4.286,14.257,15.307V76
			c0,2.623,0.875,3.848,2.624,3.848c1.662,0,2.1-0.35,3.062-0.438c0.699-0.088,1.049,0,1.049,0.875v3.936
			c0,0.787-0.262,1.486-1.224,1.836c-1.399,0.525-2.712,0.787-6.123,0.787c-3.936,0-8.659-1.574-8.659-8.92V55.533
			c0-5.249-2.273-8.923-8.134-8.923c-7.959,0-11.982,6.91-11.982,18.806v10.496c0,3.236,0.962,3.76,3.849,3.76h2.099
			c1.399,0,1.662,0.352,1.662,1.312v3.848c0,1.225-0.438,1.576-1.662,1.576h-21.167c-1.225,0-1.574-0.352-1.574-1.576v-3.848
			c0-0.961,0.175-1.312,1.574-1.312h2.099c2.886,0,3.849-0.523,3.849-3.76V49.848C194.8,47.66,193.925,47.224,189.377,47.224z"/>
		<path fill="#4177A0" d="M282.08,53.958c0,8.833-5.598,14.782-18.455,14.782c-3.936,0-7.959-0.525-11.545-1.574
			c0.874,9.096,5.072,12.77,13.906,12.77c5.073,0,9.534-1.225,11.72-2.1c1.925-0.699,2.975-1.312,3.674-1.312
			c0.612,0,0.787,0.35,0.787,1.051v4.109c0,1.051-0.262,1.574-1.749,2.361c-2.887,1.488-9.009,2.975-15.219,2.975
			c-16.181,0-22.915-9.533-22.915-23.615c0-14.694,7.172-24.578,21.253-24.578C275.521,38.826,282.08,44.337,282.08,53.958z
			 M251.992,60.693c3.674,1.049,7.697,1.574,10.933,1.574c6.91,0,10.583-2.799,10.583-8.572c0-5.686-3.498-8.222-9.971-8.222
			C256.278,45.474,252.604,50.984,251.992,60.693z"/>
		<path fill="#4177A0" d="M288.997,47.224c-1.137,0-1.487-0.525-1.487-1.575v-3.586c0-1.225,0.351-1.574,1.662-1.661l12.683-0.7
			c1.574,0,2.012,0.7,2.012,2.449v9.184c1.224-4.286,5.16-12.508,14.693-12.508c6.385,0,9.009,3.499,9.009,8.484
			c0,3.499-2.711,5.772-5.686,5.772c-2.886,0-5.247-2.099-5.247-5.423c0-0.699,0.087-1.398,0.35-2.012
			c-8.396,0.263-13.119,12.596-13.119,21.867v8.396c0,3.236,0.962,3.76,3.848,3.76h3.849c1.399,0,1.662,0.352,1.662,1.312v3.936
			c0,1.137-0.351,1.488-1.662,1.488h-22.916c-1.224,0-1.573-0.352-1.573-1.576v-3.848c0-1.049,0.262-1.312,1.573-1.312h2.013
			c2.886,0,3.936-0.699,3.936-3.76v-25.54C294.595,47.748,293.895,47.224,288.997,47.224z"/>
		<path fill="#4177A0" d="M360.892,55.096c-3.148,0-5.335-2.013-5.335-5.336c0-1.225,0.262-2.361,0.874-3.323
			c-1.924-0.875-4.285-1.4-7.172-1.4c-6.035,0-8.571,2.537-8.571,6.035c0,11.021,26.326,3.674,26.326,22.128
			c0,9.621-6.297,14.346-18.454,14.346c-10.671,0-18.28-3.674-18.28-11.283c0-3.324,2.012-5.773,5.423-5.773
			c3.323,0,5.16,2.188,5.16,5.336c0,1.486-0.438,2.711-1.225,3.674c2.449,1.312,5.511,1.836,8.747,1.836
			c6.122,0,9.883-2.012,9.883-6.996c0-11.371-26.239-3.762-26.239-22.217c0-8.483,5.598-13.295,16.881-13.295
			s17.143,3.937,17.143,10.759C366.052,52.471,364.04,55.096,360.892,55.096z"/>
		<path fill="#4177A0" d="M394.818,86.408h-21.69c-1.138,0-1.662-0.264-1.662-1.576v-3.41c0-1.312,0.524-1.75,1.486-1.75
			c4.811,0,5.86-0.611,5.86-4.109V33.754c0-2.536-0.7-3.411-2.711-3.674h-3.149c-1.137,0-1.486-0.437-1.486-1.574v-3.673
			c0-1.312,0.35-1.574,1.749-1.574h21.69c23.879,0,34.986,10.582,34.986,31.661C429.892,76.262,417.56,86.408,394.818,86.408z
			 M388.608,79.148h6.123c17.229,0,25.015-7.086,25.015-24.229c0-17.93-8.397-24.665-25.452-24.665h-5.686V79.148z"/>
		<path fill="#4177A0" d="M454.319,38.826c12.07,0,18.63,3.586,18.63,17.494V76c0,2.623,0.875,3.848,2.624,3.848
			c1.574,0,2.012-0.35,2.974-0.438c0.787-0.088,1.138,0,1.138,0.875v3.936c0,0.787-0.263,1.486-1.225,1.836
			c-1.4,0.525-2.712,0.787-6.123,0.787s-7.26-1.137-8.396-5.859c-2.974,3.498-8.047,5.947-15.219,5.947
			c-9.621,0-14.432-4.197-14.432-12.594c0-12.07,9.971-15.395,25.627-15.395h3.761v-2.799c0-7.697-2.624-10.233-9.446-10.233
			c-2.711,0-5.422,0.438-7.608,1.399c0.524,0.787,0.874,1.837,0.874,3.062c0,3.498-2.711,5.86-5.772,5.86
			c-2.886,0-5.16-2.1-5.16-5.423C436.564,42.062,442.949,38.826,454.319,38.826z M450.821,80.197
			c7.434,0,12.856-4.723,12.856-12.945V65.24h-3.761c-10.495,0-16.443,2.188-16.443,8.834
			C443.474,77.836,445.398,80.197,450.821,80.197z"/>
		<path fill="#4177A0" d="M504.559,77.836l9.446-27.552c0.874-2.361-0.263-2.974-3.149-3.061l-0.787-0.088
			c-1.225-0.088-1.574-0.525-1.574-1.487v-3.586c0-1.312,0.438-1.574,1.574-1.574h18.105c1.225,0,1.486,0.263,1.486,1.399v3.586
			c0,1.137-0.175,1.662-1.486,1.75l-1.487,0.087c-2.273,0.088-3.323,0.088-4.548,3.323l-12.944,35.161
			c-0.438,1.049-0.612,1.312-2.1,1.312h-6.997c-1.05,0-1.399-0.264-1.749-1.225l-13.12-34.812c-1.399-3.498-2.012-3.411-4.723-3.848
			h-0.962c-1.225-0.263-1.487-0.7-1.487-1.662v-3.674c0-1.137,0.35-1.399,1.487-1.399h19.417c1.225,0,1.486,0.35,1.486,1.487v3.586
			c0,0.875-0.35,1.486-1.574,1.486l-0.874,0.088c-2.887,0.088-3.762,0.874-2.712,3.761L504.559,77.836z"/>
		<path fill="#4177A0" d="M553.563,79.672h2.1c1.399,0,1.662,0.352,1.662,1.312v3.848c0,1.225-0.438,1.576-1.662,1.576h-21.166
			c-1.225,0-1.574-0.352-1.574-1.576v-3.848c0-0.961,0.175-1.312,1.574-1.312h2.099c2.887,0,3.849-0.523,3.849-3.76V50.459
			c0-2.274-0.612-3.061-2.536-3.148l-2.974-0.087c-1.4-0.088-1.575-0.787-1.575-1.837V42.15c0-1.399,0.351-1.574,1.575-1.662
			l12.77-0.787c1.574,0,2.012,0.7,2.012,2.449v33.762C549.716,79.148,550.678,79.672,553.563,79.672z"/>
		<path fill="#4177A0" d="M591.741,55.096c-3.148,0-5.336-2.013-5.336-5.336c0-1.225,0.263-2.361,0.875-3.323
			c-1.924-0.875-4.285-1.4-7.172-1.4c-6.035,0-8.571,2.537-8.571,6.035c0,11.021,26.326,3.674,26.326,22.128
			c0,9.621-6.297,14.346-18.455,14.346c-10.67,0-18.279-3.674-18.279-11.283c0-3.324,2.012-5.773,5.423-5.773
			c3.323,0,5.16,2.188,5.16,5.336c0,1.486-0.438,2.711-1.225,3.674c2.449,1.312,5.51,1.836,8.746,1.836
			c6.123,0,9.884-2.012,9.884-6.996c0-11.371-26.239-3.762-26.239-22.217c0-8.483,5.598-13.295,16.881-13.295
			c11.282,0,17.143,3.937,17.143,10.759C596.901,52.471,594.89,55.096,591.741,55.096z"/>
	</g>
</g>
</svg>
