<?xml version="1.0" encoding="utf-8"?>
<!-- Generator: Adobe Illustrator 15.1.0, SVG Export Plug-In . SVG Version: 6.00 Build 0)  -->
<!DOCTYPE svg PUBLIC "-//W3C//DTD SVG 1.1//EN" "http://www.w3.org/Graphics/SVG/1.1/DTD/svg11.dtd">
<svg version="1.1" id="Layer_1" xmlns="http://www.w3.org/2000/svg" xmlns:xlink="http://www.w3.org/1999/xlink" x="0px" y="0px"
	 width="375px" height="47.667px" viewBox="0 0 375 47.667" enable-background="new 0 0 375 47.667" xml:space="preserve">
<g>
	<path fill="#1B314B" d="M11.158,38.438v8.291c0,2.297,0.672,2.633,2.465,2.633h1.233c0.896,0,1.009,0.167,1.009,0.841v2.465
		c0,0.729-0.168,1.01-1.009,1.01H1.299c-0.784,0-1.064-0.225-1.064-1.01v-2.465c0-0.615,0.167-0.841,1.064-0.841h1.233
		c1.737,0,2.409-0.504,2.409-2.633V19.951c0-1.624-0.449-2.186-1.737-2.353H1.187c-0.728,0-0.953-0.281-0.953-1.009v-2.353
		c0-0.841,0.225-1.009,1.12-1.009h13.222c11.765,0,17.927,3.025,17.927,12.438c0,8.627-5.938,12.773-14.79,12.773L11.158,38.438
		L11.158,38.438z M15.64,34.18c7.003,0,10.309-2.913,10.309-8.515c0-5.995-3.529-8.18-10.701-8.18h-4.089V34.18H15.64z"/>
	<path fill="#1B314B" d="M47.276,23.2c7.73,0,11.932,2.297,11.932,11.204v12.604c0,1.683,0.56,2.467,1.681,2.467
		c1.009,0,1.288-0.225,1.904-0.28c0.504-0.057,0.728,0,0.728,0.56v2.521c0,0.504-0.168,0.952-0.784,1.178
		c-0.896,0.336-1.737,0.504-3.92,0.504c-2.186,0-4.651-0.729-5.379-3.754c-1.904,2.24-5.154,3.81-9.749,3.81
		c-6.163,0-9.243-2.688-9.243-8.067c0-7.729,6.386-9.859,16.415-9.859h2.409v-1.793c0-4.932-1.681-6.557-6.05-6.557
		c-1.738,0-3.474,0.281-4.874,0.896c0.337,0.502,0.56,1.177,0.56,1.961c0,2.24-1.737,3.75-3.698,3.75
		c-1.848,0-3.305-1.342-3.305-3.471C35.903,25.273,39.993,23.2,47.276,23.2z M45.035,49.699c4.762,0,8.236-3.023,8.236-8.289v-1.287
		h-2.409c-6.723,0-10.533,1.401-10.533,5.656C40.329,48.186,41.562,49.699,45.035,49.699z"/>
	<path fill="#1B314B" d="M66.989,28.58c-0.728,0-0.952-0.336-0.952-1.01v-2.296c0-0.784,0.224-1.009,1.064-1.064l8.123-0.449
		c1.009,0,1.289,0.449,1.289,1.569v5.883c0.784-2.746,3.305-8.011,9.413-8.011c4.09,0,5.771,2.241,5.771,5.433
		c0,2.24-1.737,3.697-3.642,3.697c-1.848,0-3.36-1.345-3.36-3.474c0-0.448,0.056-0.897,0.223-1.289
		c-5.378,0.168-8.403,8.067-8.403,14.007v5.377c0,2.073,0.616,2.409,2.465,2.409h2.465c0.896,0,1.063,0.226,1.063,0.841v2.521
		c0,0.729-0.225,0.953-1.063,0.953h-14.68c-0.784,0-1.008-0.225-1.008-1.01v-2.465c0-0.672,0.168-0.841,1.008-0.841h1.29
		c1.848,0,2.521-0.45,2.521-2.409V30.595C70.575,28.914,70.128,28.58,66.989,28.58z"/>
	<path fill="#1B314B" d="M94.861,17.415c0-0.782,3.257-1.443,4.434-1.443c1.457,0,1.512,0.111,1.512,0.896v7.394h6.724
		c0.952,0,1.232,0.112,1.232,0.842v2.688c0,0.672-0.28,1.008-1.176,1.008h-6.779v14.959c0,4.931,1.513,5.658,4.371,5.658
		c1.624,0,2.745-0.225,3.584-0.561c0.617-0.281,0.896-0.111,0.896,0.671v2.466c0,0.672-0.224,1.008-0.896,1.287
		c-1.455,0.561-3.528,0.729-5.098,0.729c-4.761,0-8.795-1.567-8.795-8.795L94.861,17.415z"/>
	<path fill="#1B314B" d="M113.12,28.58c-0.728,0-0.953-0.336-0.953-1.01v-2.296c0-0.784,0.225-1.009,1.064-1.064l7.844-0.449
		c1.008,0,1.233,0.449,1.233,1.569v3.811c1.568-4.09,5.434-5.938,10.028-5.938c5.266,0,9.131,2.747,9.131,9.803v14.006
		c0,1.682,0.56,2.466,1.681,2.466c1.063,0,1.344-0.226,1.961-0.28c0.449-0.057,0.671,0,0.671,0.561v2.521
		c0,0.505-0.167,0.952-0.784,1.177c-0.895,0.336-1.737,0.504-3.921,0.504c-2.521,0-5.546-1.008-5.546-5.715V33.9
		c0-3.361-1.456-5.713-5.209-5.713c-5.099,0-7.676,4.426-7.676,12.043v6.725c0,2.073,0.616,2.407,2.465,2.407h1.344
		c0.896,0,1.064,0.228,1.064,0.843v2.465c0,0.785-0.28,1.01-1.064,1.01h-13.558c-0.784,0-1.009-0.225-1.009-1.01v-2.465
		c0-0.615,0.112-0.843,1.009-0.843h1.345c1.848,0,2.465-0.334,2.465-2.407V30.262C116.594,28.858,116.034,28.58,113.12,28.58z"/>
	<path fill="#1B314B" d="M172.5,32.892c0,5.658-3.585,9.468-11.821,9.468c-2.521,0-5.099-0.335-7.396-1.009
		c0.56,5.824,3.249,8.179,8.907,8.179c3.249,0,6.107-0.782,7.508-1.344c1.233-0.451,1.906-0.845,2.354-0.845
		c0.392,0,0.504,0.226,0.504,0.673v2.633c0,0.671-0.168,1.009-1.121,1.511c-1.849,0.953-5.772,1.905-9.75,1.905
		c-10.365,0-14.678-6.104-14.678-15.127c0-9.411,4.595-15.74,13.614-15.74C168.297,23.2,172.5,26.729,172.5,32.892z M153.227,37.205
		c2.353,0.672,4.931,1.01,7.004,1.01c4.424,0,6.777-1.795,6.777-5.49c0-3.643-2.24-5.268-6.386-5.268
		C155.971,27.458,153.62,30.986,153.227,37.205z"/>
	<path fill="#1B314B" d="M176.929,28.58c-0.729,0-0.953-0.336-0.953-1.01v-2.296c0-0.784,0.224-1.009,1.063-1.064l8.123-0.449
		c1.01,0,1.29,0.449,1.29,1.569v5.883c0.784-2.746,3.305-8.011,9.409-8.011c4.093,0,5.771,2.241,5.771,5.433
		c0,2.24-1.736,3.697-3.642,3.697c-1.849,0-3.358-1.345-3.358-3.474c0-0.448,0.057-0.897,0.227-1.289
		c-5.379,0.168-8.404,8.067-8.404,14.007v5.377c0,2.073,0.616,2.409,2.465,2.409h2.466c0.896,0,1.062,0.226,1.062,0.841v2.521
		c0,0.729-0.225,0.953-1.062,0.953h-14.679c-0.784,0-1.008-0.225-1.008-1.01v-2.465c0-0.672,0.167-0.841,1.008-0.841h1.288
		c1.849,0,2.522-0.45,2.522-2.409V30.595C180.515,28.914,180.067,28.58,176.929,28.58z"/>
	<path fill="#1B314B" d="M222.979,33.621c-2.017,0-3.416-1.289-3.416-3.418c0-0.785,0.166-1.514,0.561-2.129
		c-1.234-0.56-2.746-0.896-4.594-0.896c-3.868,0-5.49,1.624-5.49,3.864c0,7.059,16.859,2.354,16.859,14.174
		c0,6.162-4.033,9.188-11.82,9.188c-6.836,0-11.709-2.354-11.709-7.227c0-2.13,1.289-3.698,3.474-3.698
		c2.13,0,3.306,1.4,3.306,3.417c0,0.954-0.279,1.737-0.782,2.354c1.569,0.842,3.528,1.176,5.604,1.176
		c3.918,0,6.331-1.287,6.331-4.48c0-7.281-16.808-2.404-16.808-14.229c0-5.432,3.584-8.514,10.812-8.514
		c7.226,0,10.977,2.521,10.977,6.891C226.284,31.939,224.995,33.621,222.979,33.621z"/>
	<path fill="#1B314B" d="M244.711,53.677h-13.895c-0.729,0-1.065-0.17-1.065-1.01v-2.186c0-0.843,0.337-1.12,0.954-1.12
		c3.08,0,3.754-0.394,3.754-2.633V19.951c0-1.624-0.449-2.186-1.736-2.353h-2.018c-0.729,0-0.954-0.281-0.954-1.009v-2.353
		c0-0.841,0.226-1.009,1.12-1.009h13.895c15.295,0,22.41,6.779,22.41,20.278C267.176,47.178,259.275,53.677,244.711,53.677z
		 M240.732,49.026h3.922c11.035,0,16.021-4.536,16.021-15.519c0-11.486-5.379-15.798-16.303-15.798h-3.643v31.317H240.732z"/>
	<path fill="#1B314B" d="M282.82,23.2c7.732,0,11.933,2.297,11.933,11.204v12.604c0,1.683,0.562,2.467,1.683,2.467
		c1.008,0,1.289-0.225,1.905-0.28c0.503-0.057,0.729,0,0.729,0.56v2.521c0,0.504-0.17,0.952-0.785,1.178
		c-0.896,0.336-1.74,0.504-3.924,0.504s-4.647-0.729-5.375-3.754c-1.905,2.24-5.156,3.81-9.75,3.81
		c-6.166,0-9.243-2.688-9.243-8.067c0-7.729,6.387-9.859,16.416-9.859h2.407v-1.793c0-4.932-1.68-6.557-6.049-6.557
		c-1.74,0-3.475,0.281-4.875,0.896c0.338,0.502,0.561,1.177,0.561,1.961c0,2.24-1.736,3.75-3.698,3.75
		c-1.849,0-3.306-1.342-3.306-3.471C271.448,25.273,275.539,23.2,282.82,23.2z M280.581,49.699c4.762,0,8.235-3.023,8.235-8.289
		v-1.287h-2.405c-6.724,0-10.532,1.401-10.532,5.656C275.876,48.186,277.107,49.699,280.581,49.699z"/>
	<path fill="#1B314B" d="M315,48.186l6.049-17.646c0.562-1.513-0.164-1.906-2.015-1.961l-0.503-0.058
		c-0.785-0.056-1.009-0.336-1.009-0.953v-2.296c0-0.841,0.279-1.009,1.009-1.009h11.595c0.785,0,0.954,0.168,0.954,0.896v2.297
		c0,0.729-0.113,1.064-0.954,1.121l-0.951,0.057c-1.457,0.056-2.131,0.056-2.914,2.13l-8.29,22.521
		c-0.279,0.672-0.394,0.842-1.345,0.842h-4.479c-0.672,0-0.895-0.17-1.119-0.785l-8.407-22.295c-0.894-2.24-1.285-2.186-3.021-2.465
		h-0.619c-0.785-0.168-0.953-0.449-0.953-1.063v-2.354c0-0.727,0.225-0.895,0.953-0.895h12.438c0.783,0,0.952,0.225,0.952,0.953
		v2.295c0,0.561-0.226,0.953-1.012,0.953l-0.557,0.056c-1.85,0.056-2.41,0.56-1.739,2.408L315,48.186z"/>
	<path fill="#1B314B" d="M346.391,49.362h1.344c0.896,0,1.062,0.226,1.062,0.841v2.465c0,0.785-0.281,1.01-1.062,1.01h-13.559
		c-0.783,0-1.01-0.225-1.01-1.01v-2.465c0-0.615,0.11-0.841,1.01-0.841h1.346c1.848,0,2.466-0.336,2.466-2.409V30.652
		c0-1.457-0.393-1.963-1.625-2.018l-1.905-0.057c-0.896-0.057-1.009-0.504-1.009-1.176V25.33c0-0.896,0.226-1.01,1.009-1.063
		l8.179-0.504c1.009,0,1.291,0.449,1.291,1.569v21.623C343.926,49.026,344.54,49.362,346.391,49.362z M340.957,10.595
		c2.015,0,3.7,1.624,3.7,4.034c0,2.576-1.966,4.09-4.203,4.09c-2.016,0-3.585-1.401-3.585-3.811
		C336.866,12.332,338.66,10.595,340.957,10.595z"/>
	<path fill="#1B314B" d="M370.844,33.621c-2.017,0-3.419-1.289-3.419-3.418c0-0.785,0.169-1.514,0.562-2.129
		c-1.235-0.56-2.75-0.896-4.597-0.896c-3.865,0-5.487,1.624-5.487,3.864c0,7.059,16.859,2.354,16.859,14.174
		c0,6.162-4.034,9.188-11.823,9.188c-6.832,0-11.708-2.354-11.708-7.227c0-2.13,1.29-3.698,3.477-3.698
		c2.129,0,3.307,1.4,3.307,3.417c0,0.954-0.28,1.737-0.786,2.354c1.571,0.842,3.53,1.176,5.604,1.176
		c3.921,0,6.333-1.287,6.333-4.48c0-7.281-16.809-2.404-16.809-14.229c0-5.432,3.586-8.514,10.812-8.514
		c7.229,0,10.979,2.521,10.979,6.891C374.146,31.939,372.86,33.621,370.844,33.621z"/>
</g>
</svg>
