<?xml version="1.0" encoding="utf-8"?>
<!-- Generator: Adobe Illustrator 15.1.0, SVG Export Plug-In . SVG Version: 6.00 Build 0)  -->
<!DOCTYPE svg PUBLIC "-//W3C//DTD SVG 1.1//EN" "http://www.w3.org/Graphics/SVG/1.1/DTD/svg11.dtd">
<svg version="1.1" id="Layer_1" xmlns="http://www.w3.org/2000/svg" xmlns:xlink="http://www.w3.org/1999/xlink" x="0px" y="0px"
	 width="375px" height="47.667px" viewBox="0 0 375 47.667" enable-background="new 0 0 375 47.667" xml:space="preserve">
<g>
	<path fill="#FFFFFF" d="M11.158,35.296v8.291c0,2.297,0.672,2.633,2.465,2.633h1.233c0.896,0,1.009,0.167,1.009,0.841v2.465
		c0,0.729-0.168,1.011-1.009,1.011H1.299c-0.784,0-1.064-0.226-1.064-1.011v-2.465c0-0.615,0.167-0.841,1.064-0.841h1.233
		c1.737,0,2.409-0.504,2.409-2.633V16.81c0-1.624-0.449-2.186-1.737-2.353H1.187c-0.728,0-0.953-0.281-0.953-1.009v-2.353
		c0-0.841,0.225-1.009,1.12-1.009h13.222c11.765,0,17.927,3.025,17.927,12.438c0,8.627-5.938,12.772-14.79,12.772H11.158
		L11.158,35.296z M15.64,31.039c7.003,0,10.309-2.913,10.309-8.515c0-5.996-3.529-8.181-10.701-8.181h-4.089v16.695H15.64z"/>
	<path fill="#FFFFFF" d="M47.276,20.059c7.73,0,11.932,2.297,11.932,11.204v12.604c0,1.684,0.56,2.468,1.681,2.468
		c1.009,0,1.288-0.226,1.904-0.28c0.504-0.057,0.728,0,0.728,0.561v2.521c0,0.504-0.168,0.952-0.784,1.179
		c-0.896,0.336-1.737,0.504-3.92,0.504c-2.186,0-4.651-0.729-5.379-3.754c-1.904,2.239-5.154,3.81-9.749,3.81
		c-6.163,0-9.243-2.688-9.243-8.067c0-7.729,6.386-9.859,16.415-9.859h2.409v-1.793c0-4.932-1.681-6.557-6.05-6.557
		c-1.738,0-3.474,0.281-4.874,0.896c0.337,0.502,0.56,1.177,0.56,1.961c0,2.24-1.737,3.75-3.698,3.75
		c-1.848,0-3.305-1.342-3.305-3.471C35.903,22.131,39.993,20.059,47.276,20.059z M45.035,46.557c4.762,0,8.236-3.023,8.236-8.289
		v-1.287h-2.409c-6.723,0-10.533,1.401-10.533,5.656C40.329,45.044,41.562,46.557,45.035,46.557z"/>
	<path fill="#FFFFFF" d="M66.989,25.438c-0.728,0-0.952-0.336-0.952-1.01v-2.296c0-0.784,0.224-1.009,1.064-1.064l8.123-0.449
		c1.009,0,1.289,0.449,1.289,1.569v5.883c0.784-2.746,3.305-8.01,9.413-8.01c4.09,0,5.771,2.241,5.771,5.432
		c0,2.24-1.737,3.697-3.642,3.697c-1.848,0-3.36-1.345-3.36-3.474c0-0.448,0.056-0.897,0.223-1.289
		c-5.378,0.168-8.403,8.067-8.403,14.007v5.377c0,2.073,0.616,2.409,2.465,2.409h2.465c0.896,0,1.063,0.226,1.063,0.841v2.521
		c0,0.729-0.225,0.953-1.063,0.953h-14.68c-0.784,0-1.008-0.225-1.008-1.01v-2.465c0-0.673,0.168-0.842,1.008-0.842h1.29
		c1.848,0,2.521-0.449,2.521-2.408V27.454C70.575,25.772,70.128,25.438,66.989,25.438z"/>
	<path fill="#FFFFFF" d="M94.861,14.273c0-0.782,3.257-1.443,4.434-1.443c1.457,0,1.512,0.111,1.512,0.896v7.394h6.724
		c0.952,0,1.232,0.112,1.232,0.842v2.688c0,0.672-0.28,1.008-1.176,1.008h-6.779v14.959c0,4.931,1.513,5.658,4.371,5.658
		c1.624,0,2.745-0.226,3.584-0.562c0.617-0.28,0.896-0.11,0.896,0.671v2.467c0,0.672-0.224,1.008-0.896,1.286
		c-1.455,0.562-3.528,0.729-5.098,0.729c-4.761,0-8.795-1.567-8.795-8.795L94.861,14.273z"/>
	<path fill="#FFFFFF" d="M113.12,25.438c-0.728,0-0.953-0.336-0.953-1.01v-2.296c0-0.784,0.225-1.009,1.064-1.064l7.844-0.449
		c1.008,0,1.233,0.449,1.233,1.569V26c1.568-4.091,5.434-5.938,10.028-5.938c5.266,0,9.131,2.748,9.131,9.802v14.007
		c0,1.682,0.56,2.466,1.681,2.466c1.063,0,1.344-0.227,1.961-0.279c0.449-0.058,0.671,0,0.671,0.561v2.521
		c0,0.505-0.167,0.952-0.784,1.177c-0.895,0.336-1.737,0.504-3.921,0.504c-2.521,0-5.546-1.008-5.546-5.715V30.758
		c0-3.361-1.456-5.713-5.209-5.713c-5.099,0-7.676,4.426-7.676,12.043v6.725c0,2.073,0.616,2.407,2.465,2.407h1.344
		c0.896,0,1.064,0.228,1.064,0.843v2.465c0,0.785-0.28,1.011-1.064,1.011h-13.558c-0.784,0-1.009-0.226-1.009-1.011v-2.465
		c0-0.615,0.112-0.843,1.009-0.843h1.345c1.848,0,2.465-0.334,2.465-2.407V27.121C116.594,25.716,116.034,25.438,113.12,25.438z"/>
	<path fill="#FFFFFF" d="M172.5,29.75c0,5.658-3.585,9.468-11.821,9.468c-2.521,0-5.099-0.335-7.396-1.009
		c0.56,5.824,3.249,8.179,8.907,8.179c3.249,0,6.107-0.782,7.508-1.344c1.233-0.451,1.906-0.845,2.354-0.845
		c0.392,0,0.504,0.226,0.504,0.673v2.633c0,0.671-0.168,1.009-1.121,1.511c-1.849,0.953-5.772,1.905-9.75,1.905
		c-10.365,0-14.678-6.104-14.678-15.127c0-9.411,4.595-15.74,13.614-15.74C168.297,20.059,172.5,23.587,172.5,29.75z
		 M153.227,34.063c2.353,0.672,4.931,1.01,7.004,1.01c4.424,0,6.777-1.795,6.777-5.489c0-3.644-2.24-5.269-6.386-5.269
		C155.971,24.317,153.62,27.844,153.227,34.063z"/>
	<path fill="#FFFFFF" d="M176.929,25.438c-0.729,0-0.953-0.336-0.953-1.01v-2.296c0-0.784,0.224-1.009,1.063-1.064l8.123-0.449
		c1.01,0,1.29,0.449,1.29,1.569v5.883c0.784-2.746,3.305-8.01,9.409-8.01c4.093,0,5.771,2.241,5.771,5.432
		c0,2.24-1.735,3.697-3.642,3.697c-1.85,0-3.358-1.345-3.358-3.474c0-0.448,0.058-0.897,0.228-1.289
		c-5.379,0.168-8.404,8.067-8.404,14.007v5.377c0,2.073,0.616,2.409,2.465,2.409h2.466c0.896,0,1.062,0.226,1.062,0.841v2.521
		c0,0.729-0.225,0.953-1.062,0.953h-14.679c-0.784,0-1.008-0.225-1.008-1.01v-2.465c0-0.673,0.167-0.842,1.008-0.842h1.288
		c1.849,0,2.522-0.449,2.522-2.408V27.454C180.515,25.772,180.067,25.438,176.929,25.438z"/>
	<path fill="#FFFFFF" d="M222.979,30.479c-2.017,0-3.416-1.289-3.416-3.418c0-0.785,0.166-1.514,0.562-2.129
		c-1.233-0.56-2.746-0.896-4.595-0.896c-3.867,0-5.489,1.624-5.489,3.864c0,7.059,16.858,2.354,16.858,14.174
		c0,6.162-4.032,9.188-11.819,9.188c-6.836,0-11.709-2.354-11.709-7.227c0-2.131,1.289-3.698,3.474-3.698
		c2.131,0,3.307,1.399,3.307,3.417c0,0.954-0.279,1.736-0.782,2.354c1.569,0.842,3.528,1.176,5.604,1.176
		c3.918,0,6.33-1.286,6.33-4.479c0-7.28-16.808-2.403-16.808-14.229c0-5.432,3.584-8.513,10.812-8.513
		c7.227,0,10.978,2.521,10.978,6.89C226.284,28.797,224.995,30.479,222.979,30.479z"/>
	<path fill="#FFFFFF" d="M244.711,50.536h-13.895c-0.729,0-1.065-0.17-1.065-1.01v-2.187c0-0.843,0.337-1.12,0.954-1.12
		c3.08,0,3.754-0.395,3.754-2.633V16.81c0-1.624-0.449-2.186-1.736-2.353h-2.018c-0.729,0-0.954-0.281-0.954-1.009v-2.353
		c0-0.841,0.226-1.009,1.12-1.009h13.895c15.295,0,22.41,6.779,22.41,20.278C267.176,44.037,259.275,50.536,244.711,50.536z
		 M240.732,45.884h3.922c11.035,0,16.021-4.536,16.021-15.519c0-11.486-5.379-15.798-16.303-15.798h-3.644v31.317H240.732z"/>
	<path fill="#FFFFFF" d="M282.82,20.059c7.731,0,11.933,2.297,11.933,11.204v12.604c0,1.684,0.562,2.468,1.683,2.468
		c1.008,0,1.289-0.226,1.905-0.28c0.503-0.057,0.729,0,0.729,0.561v2.521c0,0.504-0.17,0.952-0.785,1.179
		c-0.896,0.336-1.74,0.504-3.924,0.504c-2.185,0-4.647-0.729-5.375-3.754c-1.905,2.239-5.156,3.81-9.75,3.81
		c-6.166,0-9.243-2.688-9.243-8.067c0-7.729,6.387-9.859,16.416-9.859h2.407v-1.793c0-4.932-1.68-6.557-6.049-6.557
		c-1.74,0-3.476,0.281-4.875,0.896c0.338,0.502,0.561,1.177,0.561,1.961c0,2.24-1.736,3.75-3.698,3.75
		c-1.849,0-3.306-1.342-3.306-3.471C271.448,22.131,275.539,20.059,282.82,20.059z M280.581,46.557c4.762,0,8.235-3.023,8.235-8.289
		v-1.287h-2.405c-6.724,0-10.532,1.401-10.532,5.656C275.876,45.044,277.107,46.557,280.581,46.557z"/>
	<path fill="#FFFFFF" d="M315,45.044l6.049-17.646c0.562-1.514-0.164-1.906-2.015-1.961l-0.503-0.059
		c-0.785-0.057-1.009-0.336-1.009-0.953V22.13c0-0.841,0.278-1.009,1.009-1.009h11.595c0.785,0,0.954,0.168,0.954,0.896v2.297
		c0,0.729-0.113,1.063-0.954,1.121l-0.951,0.057c-1.457,0.056-2.131,0.056-2.914,2.13l-8.29,22.521
		c-0.278,0.672-0.394,0.842-1.345,0.842h-4.479c-0.673,0-0.896-0.17-1.119-0.785l-8.407-22.295
		c-0.895-2.239-1.285-2.186-3.021-2.465h-0.619c-0.785-0.168-0.953-0.449-0.953-1.062v-2.354c0-0.728,0.226-0.896,0.953-0.896
		h12.438c0.783,0,0.952,0.226,0.952,0.953v2.295c0,0.562-0.227,0.953-1.012,0.953l-0.558,0.056c-1.85,0.057-2.41,0.561-1.739,2.408
		L315,45.044z"/>
	<path fill="#FFFFFF" d="M346.391,46.22h1.345c0.896,0,1.062,0.226,1.062,0.841v2.465c0,0.785-0.281,1.011-1.062,1.011h-13.56
		c-0.783,0-1.01-0.226-1.01-1.011v-2.465c0-0.615,0.11-0.841,1.01-0.841h1.347c1.848,0,2.466-0.336,2.466-2.409V27.51
		c0-1.457-0.394-1.963-1.625-2.018l-1.905-0.057c-0.896-0.058-1.009-0.504-1.009-1.177v-2.071c0-0.896,0.226-1.01,1.009-1.062
		l8.179-0.504c1.01,0,1.291,0.449,1.291,1.568v21.623C343.926,45.884,344.54,46.22,346.391,46.22z M340.957,7.453
		c2.015,0,3.7,1.624,3.7,4.034c0,2.576-1.966,4.09-4.203,4.09c-2.016,0-3.585-1.401-3.585-3.811
		C336.866,9.19,338.66,7.453,340.957,7.453z"/>
	<path fill="#FFFFFF" d="M370.844,30.479c-2.017,0-3.419-1.289-3.419-3.418c0-0.785,0.169-1.514,0.562-2.129
		c-1.235-0.56-2.75-0.896-4.598-0.896c-3.864,0-5.486,1.624-5.486,3.864c0,7.059,16.858,2.354,16.858,14.174
		c0,6.162-4.033,9.188-11.822,9.188c-6.832,0-11.708-2.354-11.708-7.227c0-2.131,1.29-3.698,3.477-3.698
		c2.129,0,3.307,1.399,3.307,3.417c0,0.954-0.279,1.736-0.786,2.354c1.571,0.842,3.53,1.176,5.604,1.176
		c3.921,0,6.333-1.286,6.333-4.479c0-7.28-16.809-2.403-16.809-14.229c0-5.432,3.586-8.513,10.812-8.513
		c7.229,0,10.979,2.521,10.979,6.89C374.146,28.797,372.86,30.479,370.844,30.479z"/>
</g>
</svg>
